<svg id="Layer_1" data-name="Layer 1" xmlns="http://www.w3.org/2000/svg" viewBox="0 0 44.152 48.6519">
  <path id="fullLogo" d="M27.6725,32.1791l-.898-.898V28.3669l.3973-.14c3.9357-1.3821,4.7636-4.2362,4.7636-6.3827a6.7079,6.7079,0,0,0-4.5633-6.4861c-.19-.0768-.3939-.1436-.5976-.21v-2.6a2.5422,2.5422,0,0,0-4.343-1.7993l-3.8156,3.8156H13.0011V18.81H14.37L10,23.1793h6.0054l4.37-4.37h2.1565v5.9987l-.04.0034c-1.0515.0667-2.0864.0667-2.9977.0667a2.1241,2.1241,0,0,0-1.4989,3.6253L22.5317,33.04v5.6115h4.2428V37.2866l1.3687,1.3653H34.152Zm-4.2963-20.49a1.209,1.209,0,0,1,2.063.858v2.29c-.1235-.0234-.247-.0467-.3638-.0668-.0234-.0033-.05-.0067-.07-.01-.1-.0167-.4507-.0668-.5275-.0768a.5082.5082,0,0,1-.0767-.0067.4715.4715,0,0,0-.0635-.0066c-.03-.0034-.0567-.0067-.0834-.01a.202.202,0,0,0-.0434-.0034c-.03-.0033-.06-.0067-.0868-.01a.24.24,0,0,1-.05-.0033c-.0133,0-.03-.0034-.0467-.0034a.51.51,0,0,0-.0668-.0067c-.0334-.0033-.0668-.0033-.0968-.0066V13.4284l-1.175,1.1784h-2.23ZM15.4513,21.844h-2.23l3.0812-3.0812h2.23Zm-1.115-4.37V15.8986s9.2336,0,9.5273.0234a10.6885,10.6885,0,0,1,1.5756.2337,9.63,9.63,0,0,1,1.4388.444A5.375,5.375,0,0,1,30.6,21.844c0,2.8742-1.6891,4.3564-3.869,5.1242V25.2824a3.4787,3.4787,0,0,0,2.29-3.4384,3.7143,3.7143,0,0,0-2.29-3.5886c-.13-.0634-.26-.1235-.4006-.18-.15-.06-.3-.1134-.4473-.1635-.08-.0267-.1635-.05-.2437-.0768-.0667-.02-.1335-.0367-.2-.0534-.2136-.06-.4206-.1068-.6175-.1436-.0568-.01-.2437-.0434-.28-.05-.06-.01-.1169-.02-.1736-.0267-.0935-.0134-.1836-.0234-.2671-.0334-.05-.0067-.1-.0125-.1469-.0167-.03-.0028-.06-.0067-.09-.01-.3071-.0267-.4974-.0267-.5007-.0267Zm12.4382,6.2591V19.8411a2.309,2.309,0,0,1,.9114,2.0029A2.0458,2.0458,0,0,1,26.7745,23.7334Zm-1.3319-4.61V29.9425l-1.5289-1.5289L23.867,18.8a8.3463,8.3463,0,0,1,1.2418.227C25.2189,19.0566,25.3324,19.09,25.4426,19.1233Zm0,18.1933H23.867V34.3757l1.5756,1.5756Zm-2.8642-6.1189-3.642-3.6387a.78.78,0,0,1-.17-.8579.7926.7926,0,0,1,.7277-.4874c.908,0,1.9862,0,3.0845-.07v1.5723c-.4139.0267-.8145.0467-1.2018.0568l9.5473,9.5439H28.6973Z" style="fill: #2a947b"/>
</svg>
